<?xml version="1.0" standalone="no"?>
<!DOCTYPE svg PUBLIC "-//W3C//DTD SVG 20010904//EN"
 "http://www.w3.org/TR/2001/REC-SVG-20010904/DTD/svg10.dtd">
<svg version="1.0" xmlns="http://www.w3.org/2000/svg"
 width="747.000000pt" height="750.000000pt" viewBox="0 0 747.000000 750.000000"
 preserveAspectRatio="xMidYMid meet">

<g transform="translate(0.000000,750.000000) scale(0.100000,-0.100000)"
fill="white" stroke="none" opacity="0.3">
<path d="M3485 7493 c-1314 -87 -2506 -878 -3097 -2057 -211 -421 -312 -764
-382 -1303 l-5 -33 973 0 973 0 13 63 c19 99 77 263 135 382 246 509 718 875
1280 995 128 28 437 38 582 21 505 -62 971 -340 1265 -756 122 -173 233 -413
279 -604 l24 -101 972 0 973 0 -5 28 c-2 15 -9 68 -15 117 -18 147 -69 390
-115 550 -140 481 -361 906 -684 1310 -117 147 -388 421 -532 538 -615 500
-1320 784 -2103 847 -118 9 -411 11 -531 3z"/>
<path d="M3615 4999 c-422 -39 -808 -306 -1002 -694 -47 -93 -95 -239 -114
-345 -19 -107 -17 -335 5 -440 53 -260 163 -466 346 -651 249 -250 582 -381
935 -365 327 14 606 136 835 366 403 401 483 1028 195 1515 -248 419 -717 660
-1200 614z"/>
<path d="M0 3437 c0 -7 7 -69 15 -137 239 -1952 1946 -3389 3905 -3289 941 48
1801 430 2465 1094 590 590 963 1352 1070 2188 8 65 15 127 15 138 0 19 -13
19 -967 17 l-967 -3 -32 -125 c-41 -159 -73 -249 -140 -381 -322 -644 -988
-1037 -1704 -1005 -818 36 -1492 587 -1694 1386 l-32 125 -967 3 c-782 2 -967
0 -967 -11z"/>
</g>
</svg>
